<svg width="500" height="500" viewBox="0 0 500 500" fill="none" xmlns="http://www.w3.org/2000/svg">
<circle cx="250" cy="250" r="250" fill="#DCF4F4"/>
<path d="M425.188 250.468C425.406 249.651 425.406 248.791 425.188 247.973L338.866 100.349C338.918 100.008 338.918 99.6613 338.866 99.3215C338.049 99.0889 337.182 99.0889 336.365 99.3215H164.163L162.397 98C161.598 98.382 160.931 98.9966 160.486 99.7617L74.1637 247.973C74.0974 248.509 74.0974 249.05 74.1637 249.587C73.9454 250.404 73.9454 251.265 74.1637 252.081L160.19 400.292L161.072 401.173V401.174C161.78 401.744 162.663 402.055 163.573 402.054H335.041C335.924 402.034 336.787 401.78 337.541 401.32L338.864 400.292L424.303 252.668C424.351 252.131 424.351 251.59 424.303 251.053C424.303 251.053 425.185 250.613 425.185 250.467L425.188 250.468ZM333.425 391.49L304.015 374.615L398.13 279.231L333.425 391.49ZM165.929 109.009L197.547 127.351L99.9016 223.027L165.929 109.009ZM330.485 193.093L198.135 116.934L330.485 153.327V193.093ZM240.34 151.856L107.99 228.015L206.516 132.045L240.34 151.856ZM159.605 209.235V362.143L124.9 230.073L159.605 209.235ZM249.604 156.699L330.485 203.216V296.252L249.604 342.769L168.869 296.839V203.802L249.604 156.699ZM168.869 307.552L299.747 382.978L168.869 345.411V307.552ZM259.014 348.788L392.981 271.602L295.778 369.919L259.014 348.788ZM339.749 291.559V139.532L373.865 271.602L339.749 291.559ZM382.983 267.052L348.867 134.983L414.894 249.296L382.983 267.052ZM330.485 143.64L198.577 107.246H330.927L330.485 143.64ZM116.52 233.889L151.078 365.959L85.1967 252.086L116.52 233.889ZM168.872 355.1L302.105 393.4H168.872V355.1Z" fill="#1D7A88"/>
</svg>
